<svg width="50" height="50" viewBox="0 0 50 50" fill="none" xmlns="http://www.w3.org/2000/svg">
<g clip-path="url(#clip0_30_218)">
<path d="M24.9998 47.3959C12.6457 47.3959 2.604 37.3542 2.604 25.0001C2.604 12.6459 12.6457 2.60425 24.9998 2.60425C37.354 2.60425 47.3957 12.6459 47.3957 25.0001C47.3957 37.3542 37.354 47.3959 24.9998 47.3959ZM24.9998 5.72925C14.3748 5.72925 5.729 14.3751 5.729 25.0001C5.729 35.6251 14.3748 44.2709 24.9998 44.2709C35.6248 44.2709 44.2707 35.6251 44.2707 25.0001C44.2707 14.3751 35.6248 5.72925 24.9998 5.72925Z" fill="#20AA47"/>
<path d="M22.0415 32.4584C21.6248 32.4584 21.229 32.2917 20.9373 32.0001L15.0415 26.1042C14.4373 25.5001 14.4373 24.5001 15.0415 23.8959C15.6457 23.2917 16.6457 23.2917 17.2498 23.8959L22.0415 28.6876L32.7498 17.9792C33.354 17.3751 34.354 17.3751 34.9582 17.9792C35.5623 18.5834 35.5623 19.5834 34.9582 20.1876L23.1457 32.0001C22.854 32.2917 22.4582 32.4584 22.0415 32.4584Z" fill="#20AA47"/>
</g>
<defs>
<clipPath id="clip0_30_218">
<rect width="50" height="50" fill="white"/>
</clipPath>
</defs>
</svg>
