<svg width="50" height="50" viewBox="0 0 50 50" fill="none" xmlns="http://www.w3.org/2000/svg">
<path d="M25.0001 47.3959C12.6459 47.3959 2.60425 37.3542 2.60425 25.0001C2.60425 12.6459 12.6459 2.60425 25.0001 2.60425C37.3542 2.60425 47.3959 12.6459 47.3959 25.0001C47.3959 37.3542 37.3542 47.3959 25.0001 47.3959ZM25.0001 5.72925C14.3751 5.72925 5.72925 14.3751 5.72925 25.0001C5.72925 35.6251 14.3751 44.2709 25.0001 44.2709C35.6251 44.2709 44.2709 35.6251 44.2709 25.0001C44.2709 14.3751 35.6251 5.72925 25.0001 5.72925Z" fill="#DA4B6E"/>
<path d="M19.1042 32.4583C18.7083 32.4583 18.3125 32.3125 18 32C17.3958 31.3958 17.3958 30.3958 18 29.7917L29.7917 18C30.3958 17.3958 31.3958 17.3958 32 18C32.6042 18.6042 32.6042 19.6042 32 20.2083L20.2083 32C19.9167 32.3125 19.5 32.4583 19.1042 32.4583Z" fill="#DA4B6E"/>
<path d="M30.8958 32.4583C30.5 32.4583 30.1042 32.3125 29.7917 32L18 20.2083C17.3958 19.6042 17.3958 18.6042 18 18C18.6042 17.3958 19.6042 17.3958 20.2083 18L32 29.7917C32.6042 30.3958 32.6042 31.3958 32 32C31.6875 32.3125 31.2917 32.4583 30.8958 32.4583Z" fill="#DA4B6E"/>
</svg>
